<svg id="view" xmlns="http://www.w3.org/2000/svg" width="400px" height="400px" viewBox="0 0 200 200" xml:lang="en">
    <title>
        Card Suits
    </title>
    <view id="diamond" viewBox="0 0 100 100"/>
    <svg width="100" height="100" viewBox="0 0 20 20">
        <title>
            Diamond
        </title>
        <path fill="red" d="M3,10L10,0 17,10 10,20Z
M9,11L10,18V10H15L11,9 10,2V10H5Z"/>
    </svg>
    <view id="club" viewBox="100 0 100 100"/>
    <svg width="100" height="100" x="100" y="0" viewBox="0 0 20 20">
        <title>
            Club
        </title>
        <path fill="black" d="M9,15.5A5,5 0 1 1 5.5, 7.5
A5,5 0 1 1 14.5, 7.5A5,5 0 1 1 11, 15.5
Q11,20 13,20H7Q9,20 9,15.5Z"/>
    </svg>
   
</svg>
